<svg xmlns="http://www.w3.org/2000/svg" viewBox="0 0 1280 640" role="img" aria-labelledby="title desc">
  <title id="title">cubepi social preview</title>
  <desc id="desc">Social preview image for cubepi, a Pythonic async-native agent framework.</desc>
  <defs>
    <style>
      .ink { fill: #050608; }
      .muted { fill: #52525b; }
      .line { stroke: #e4e4e7; }
      .accent { fill: #3042d5; }
      .accent-stroke { stroke: #3042d5; }
    </style>
  </defs>

  <rect width="1280" height="640" fill="#fafafa"/>
  <path d="M0 544h1280" class="line" stroke-width="1"/>
  <path d="M1032 0h248v640h-160c-52-72-78-156-78-252 0-92 20-181-10-388Z" fill="#eef1fe"/>

  <g transform="translate(116 116) scale(.78)">
    <rect x="-38" y="-38" width="588" height="588" rx="44" fill="#ffffff" stroke="#e4e4e7"/>
    <g transform="translate(-51 -8)">
      <path class="ink" d="M317 117 L452 183 L300 252 L176 183 Z"/>
      <path class="ink" d="M171 198 L288 263 L288 432 L171 365 Z"/>
      <path class="ink" d="M411 346 L453 365 L453 376 L308 446 L303 442 L303 395 Z"/>
      <rect class="accent" x="343" y="268" width="26" height="74" rx="12"/>
      <rect class="accent" x="407" y="247" width="26" height="76" rx="12"/>
    </g>
  </g>

  <g transform="translate(552 222)">
    <text x="0" y="0" font-family="DejaVu Sans, Liberation Sans, Arial, sans-serif" font-size="96" font-weight="700" fill="#0a0a0b">cubepi</text>
    <text x="4" y="68" font-family="DejaVu Sans, Liberation Sans, Arial, sans-serif" font-size="31" font-weight="400" fill="#52525b">Pythonic async-native agent framework</text>
    <g transform="translate(4 120)">
      <path d="M0 0h536" class="line" stroke-width="1"/>
      <path d="M0 56h148M196 56h148M392 56h148" stroke="#0a0a0b" stroke-width="10" stroke-linecap="round"/>
      <rect x="164" y="43" width="18" height="26" rx="6" class="accent"/>
      <rect x="360" y="43" width="18" height="26" rx="6" class="accent"/>
    </g>
  </g>
</svg>
